# Blender v2.72 (sub 0) OBJ File: 'can.blend'
# www.blender.org
o Cylinder
v 0.000000 -0.225692 -0.102400
v 0.000000 0.250012 -0.102400
v 0.019977 -0.225692 -0.100432
v 0.019977 0.250012 -0.100432
v 0.039187 -0.225692 -0.094605
v 0.039187 0.250012 -0.094605
v 0.056890 -0.225692 -0.085143
v 0.056890 0.250012 -0.085143
v 0.072408 -0.225692 -0.072408
v 0.072408 0.250012 -0.072408
v 0.085143 -0.225692 -0.056890
v 0.085143 0.250012 -0.056890
v 0.094605 -0.225692 -0.039187
v 0.094605 0.250012 -0.039187
v 0.100432 -0.225692 -0.019977
v 0.100432 0.250012 -0.019977
v 0.102400 -0.225692 -0.000000
v 0.102400 0.250012 -0.000000
v 0.100432 -0.225692 0.019977
v 0.100432 0.250012 0.019977
v 0.094605 -0.225692 0.039187
v 0.094605 0.250012 0.039187
v 0.085143 -0.225692 0.056890
v 0.085143 0.250012 0.056890
v 0.072408 -0.225692 0.072408
v 0.072408 0.250012 0.072408
v 0.056890 -0.225692 0.085143
v 0.056890 0.250012 0.085143
v 0.039187 -0.225692 0.094605
v 0.039187 0.250012 0.094605
v 0.019977 -0.225692 0.100432
v 0.019977 0.250012 0.100432
v -0.000000 -0.225692 0.102400
v -0.000000 0.250012 0.102400
v -0.019977 -0.225692 0.100432
v -0.019977 0.250012 0.100432
v -0.039187 -0.225692 0.094605
v -0.039187 0.250012 0.094605
v -0.056890 -0.225692 0.085142
v -0.056890 0.250012 0.085142
v -0.072408 -0.225692 0.072408
v -0.072408 0.250012 0.072408
v -0.085143 -0.225692 0.056890
v -0.085143 0.250012 0.056890
v -0.094605 -0.225692 0.039187
v -0.094605 0.250012 0.039187
v -0.100432 -0.225692 0.019977
v -0.100432 0.250012 0.019977
v -0.102400 -0.225692 -0.000000
v -0.102400 0.250012 -0.000000
v -0.100432 -0.225692 -0.019977
v -0.100432 0.250012 -0.019977
v -0.094605 -0.225692 -0.039187
v -0.094605 0.250012 -0.039187
v -0.085142 -0.225692 -0.056891
v -0.085142 0.250012 -0.056891
v -0.072408 -0.225692 -0.072408
v -0.072408 0.250012 -0.072408
v -0.056890 -0.225692 -0.085143
v -0.056890 0.250012 -0.085143
v -0.039187 -0.225692 -0.094605
v -0.039187 0.250012 -0.094605
v -0.019977 -0.225692 -0.100433
v -0.019977 0.250012 -0.100433
vt 0.429345 0.000000
vt 0.463498 0.000000
vt 0.463498 0.700061
vt 0.495669 0.000000
vt 0.495669 0.700061
vt 0.524623 0.000000
vt 0.524623 0.700061
vt 0.549245 0.000000
vt 0.549246 0.700061
vt 0.274623 0.700061
vt 0.250000 0.700061
vt 0.250000 0.000000
vt 0.221047 0.700061
vt 0.221047 0.000000
vt 0.188875 0.700061
vt 0.188875 0.000000
vt 0.154722 0.700061
vt 0.154722 0.000000
vt 0.119900 0.700061
vt 0.119900 0.000000
vt 0.085748 0.700061
vt 0.085748 0.000000
vt 0.053576 0.700061
vt 0.053576 0.000000
vt 0.024623 0.700061
vt 0.024623 0.000000
vt 0.000000 0.700061
vt 0.000000 0.000000
vt 0.578199 0.000000
vt 0.578199 0.700061
vt 0.610370 0.000000
vt 0.610370 0.700061
vt 0.644523 0.000000
vt 0.644523 0.700061
vt 0.679345 0.000000
vt 0.679345 0.700061
vt 0.713498 0.000000
vt 0.713498 0.700061
vt 0.745669 0.000000
vt 0.745669 0.700061
vt 0.774623 0.000000
vt 0.774623 0.700061
vt 1.000000 0.700061
vt 0.971047 0.700061
vt 0.971047 0.000000
vt 0.938875 0.700061
vt 0.938875 0.000000
vt 0.904722 0.700061
vt 0.904722 0.000000
vt 0.869900 0.700061
vt 0.869900 0.000000
vt 0.835748 0.700061
vt 0.835747 0.000000
vt 0.803576 0.700061
vt 0.803576 0.000000
vt 0.274623 0.000000
vt 0.299246 0.000000
vt 0.299246 0.700061
vt 0.328199 0.000000
vt 0.328199 0.700061
vt 0.360370 0.000000
vt 0.360370 0.700061
vt 0.093042 0.982932
vt 0.125213 0.705824
vt 0.346760 0.806286
vt 0.394523 0.000000
vt 0.429345 0.700061
vt 0.394523 0.700061
vt 0.393019 0.945630
vt 0.373673 0.778993
vt 0.581894 0.705824
vt 1.000000 0.000000
vt 0.314088 0.754431
vt 0.333434 0.778993
vt 0.194188 0.700061
vt 0.289465 0.733542
vt 0.260512 0.717129
vt 0.228341 0.705824
vt 0.159366 0.700061
vt 0.039465 0.754430
vt 0.093042 0.717129
vt 0.194188 1.000000
vt 0.159366 1.000000
vt 0.125213 0.994237
vt 0.000000 0.835260
vt 0.006793 0.806286
vt 0.020119 0.778993
vt 0.006793 0.893775
vt 0.000000 0.864801
vt 0.039465 0.945630
vt 0.020119 0.921068
vt 0.064088 0.966519
vt 0.228341 0.994237
vt 0.314088 0.945630
vt 0.260512 0.982932
vt 0.333434 0.921068
vt 0.346760 0.893775
vt 0.353553 0.835260
vt 0.353553 0.864801
vt 0.289465 0.966519
vt 0.064088 0.733542
vt 0.614065 0.717129
vt 0.643019 0.733542
vt 0.512919 0.700061
vt 0.547741 0.700061
vt 0.446595 0.717129
vt 0.478766 0.705824
vt 0.393019 0.754430
vt 0.417641 0.733542
vt 0.360347 0.806286
vt 0.373673 0.921068
vt 0.360347 0.893775
vt 0.417641 0.966519
vt 0.446595 0.982932
vt 0.547741 1.000000
vt 0.512919 1.000000
vt 0.478766 0.994237
vt 0.614065 0.982932
vt 0.581894 0.994237
vt 0.667641 0.754431
vt 0.686987 0.778993
vt 0.700313 0.893775
vt 0.686987 0.921068
vt 0.667641 0.945630
vt 0.707107 0.835260
vt 0.707107 0.864801
vt 0.700313 0.806286
vt 0.643019 0.966519
vn 0.098000 0.000000 -0.995200
vn 0.290300 0.000000 -0.956900
vn 0.471400 0.000000 -0.881900
vn 0.634400 0.000000 -0.773000
vn 0.773000 0.000000 -0.634400
vn 0.881900 0.000000 -0.471400
vn 0.956900 0.000000 -0.290300
vn 0.995200 0.000000 -0.098000
vn 0.995200 0.000000 0.098000
vn 0.956900 0.000000 0.290300
vn 0.881900 0.000000 0.471400
vn 0.773000 0.000000 0.634400
vn 0.634400 0.000000 0.773000
vn 0.471400 0.000000 0.881900
vn 0.290300 0.000000 0.956900
vn 0.098000 0.000000 0.995200
vn -0.098000 0.000000 0.995200
vn -0.290300 0.000000 0.956900
vn -0.471400 0.000000 0.881900
vn -0.634400 0.000000 0.773000
vn -0.773000 0.000000 0.634400
vn -0.881900 0.000000 0.471400
vn -0.956900 0.000000 0.290300
vn -0.995200 0.000000 0.098000
vn -0.995200 0.000000 -0.098000
vn -0.956900 0.000000 -0.290300
vn -0.881900 0.000000 -0.471400
vn -0.773000 0.000000 -0.634400
vn -0.634400 0.000000 -0.773000
vn -0.471400 0.000000 -0.881900
vn 0.000000 1.000000 0.000000
vn -0.098000 0.000000 -0.995200
vn -0.290300 0.000000 -0.956900
vn 0.000000 -1.000000 0.000000
s off
f 2/1/1 4/2/1 3/3/1
f 4/2/2 6/4/2 5/5/2
f 6/4/3 8/6/3 7/7/3
f 8/6/4 10/8/4 9/9/4
f 10/10/5 12/11/5 11/12/5
f 12/11/6 14/13/6 13/14/6
f 14/13/7 16/15/7 15/16/7
f 16/15/8 18/17/8 17/18/8
f 18/17/9 20/19/9 19/20/9
f 20/19/10 22/21/10 21/22/10
f 22/21/11 24/23/11 23/24/11
f 24/23/12 26/25/12 25/26/12
f 26/25/13 28/27/13 27/28/13
f 28/8/14 30/29/14 29/30/14
f 30/29/15 32/31/15 31/32/15
f 32/31/16 34/33/16 33/34/16
f 34/33/17 36/35/17 35/36/17
f 36/35/18 38/37/18 37/38/18
f 38/37/19 40/39/19 39/40/19
f 40/39/20 42/41/20 41/42/20
f 42/43/21 44/44/21 43/45/21
f 44/44/22 46/46/22 45/47/22
f 46/46/23 48/48/23 47/49/23
f 48/48/24 50/50/24 49/51/24
f 50/50/25 52/52/25 51/53/25
f 52/52/26 54/54/26 53/55/26
f 54/54/27 56/42/27 55/41/27
f 56/56/28 58/57/28 57/58/28
f 58/57/29 60/59/29 59/60/29
f 60/59/30 62/61/30 61/62/30
f 44/63/31 20/64/31 4/65/31
f 64/66/32 2/1/32 1/67/32
f 62/61/33 64/66/33 63/68/33
f 31/69/34 43/70/34 57/71/34
f 1/67/1 2/1/1 3/3/1
f 3/3/2 4/2/2 5/5/2
f 5/5/3 6/4/3 7/7/3
f 7/7/4 8/6/4 9/9/4
f 9/56/5 10/10/5 11/12/5
f 11/12/6 12/11/6 13/14/6
f 13/14/7 14/13/7 15/16/7
f 15/16/8 16/15/8 17/18/8
f 17/18/9 18/17/9 19/20/9
f 19/20/10 20/19/10 21/22/10
f 21/22/11 22/21/11 23/24/11
f 23/24/12 24/23/12 25/26/12
f 25/26/13 26/25/13 27/28/13
f 27/9/14 28/8/14 29/30/14
f 29/30/15 30/29/15 31/32/15
f 31/32/16 32/31/16 33/34/16
f 33/34/17 34/33/17 35/36/17
f 35/36/18 36/35/18 37/38/18
f 37/38/19 38/37/19 39/40/19
f 39/40/20 40/39/20 41/42/20
f 41/72/21 42/43/21 43/45/21
f 43/45/22 44/44/22 45/47/22
f 45/47/23 46/46/23 47/49/23
f 47/49/24 48/48/24 49/51/24
f 49/51/25 50/50/25 51/53/25
f 51/53/26 52/52/26 53/55/26
f 53/55/27 54/54/27 55/41/27
f 55/10/28 56/56/28 57/58/28
f 57/58/29 58/57/29 59/60/29
f 59/60/30 60/59/30 61/62/30
f 8/73/31 6/74/31 4/65/31
f 8/73/31 16/75/31 10/76/31
f 12/77/31 10/76/31 14/78/31
f 20/64/31 18/79/31 16/75/31
f 20/64/31 26/80/31 22/81/31
f 50/82/31 48/83/31 46/84/31
f 32/85/31 30/86/31 28/87/31
f 36/88/31 34/89/31 32/85/31
f 40/90/31 38/91/31 36/88/31
f 44/63/31 42/92/31 40/90/31
f 44/63/31 50/82/31 46/84/31
f 61/62/33 62/61/33 63/68/33
f 52/93/31 58/94/31 54/95/31
f 58/94/31 52/93/31 44/63/31
f 60/96/31 58/94/31 62/97/31
f 4/65/31 2/98/31 64/99/31
f 4/65/31 16/75/31 8/73/31
f 64/99/31 58/94/31 44/63/31
f 58/94/31 64/99/31 62/97/31
f 32/85/31 20/64/31 44/63/31
f 40/90/31 36/88/31 32/85/31
f 20/64/31 28/87/31 26/80/31
f 58/94/31 56/100/31 54/95/31
f 26/80/31 24/101/31 22/81/31
f 10/76/31 16/75/31 14/78/31
f 44/63/31 52/93/31 50/82/31
f 32/85/31 28/87/31 20/64/31
f 44/63/31 4/65/31 64/99/31
f 40/90/31 32/85/31 44/63/31
f 4/65/31 20/64/31 16/75/31
f 63/68/32 64/66/32 1/67/32
f 57/71/34 59/102/34 61/103/34
f 53/104/34 55/105/34 57/71/34
f 49/106/34 51/107/34 53/104/34
f 45/108/34 47/109/34 49/106/34
f 45/108/34 49/106/34 43/70/34
f 41/110/34 43/70/34 39/98/34
f 33/111/34 35/112/34 37/99/34
f 29/113/34 31/69/34 27/114/34
f 21/115/34 23/116/34 25/117/34
f 17/118/34 19/119/34 21/115/34
f 63/120/34 1/121/34 9/122/34
f 9/122/34 11/123/34 13/124/34
f 5/125/34 7/126/34 9/122/34
f 1/121/34 3/127/34 5/125/34
f 9/122/34 13/124/34 15/128/34
f 49/106/34 53/104/34 57/71/34
f 57/71/34 63/120/34 9/122/34
f 49/106/34 57/71/34 43/70/34
f 31/69/34 17/118/34 27/114/34
f 17/118/34 21/115/34 25/117/34
f 15/128/34 17/118/34 57/71/34
f 1/121/34 5/125/34 9/122/34
f 57/71/34 61/103/34 63/120/34
f 43/70/34 31/69/34 39/98/34
f 39/98/34 31/69/34 33/111/34
f 9/122/34 15/128/34 57/71/34
f 17/118/34 31/69/34 57/71/34
f 17/118/34 25/117/34 27/114/34
f 37/99/34 39/98/34 33/111/34
