# Blender v2.72 (sub 0) OBJ File: ''
# www.blender.org
o Cube
v 1.000000 -1.000000 -1.000000
v 1.000000 -1.000000 1.000000
v -1.000000 -1.000000 1.000000
v -1.000000 -1.000000 -1.000000
v 1.000000 1.000000 -0.999999
v 0.999999 1.000000 1.000001
v -1.000000 1.000000 1.000000
v -1.000000 1.000000 -1.000000
vt 0.000000 0.000000
vt -0.000000 -1.000000
vt 1.000000 -1.000000
vt -0.000000 1.000000
vt -1.000000 1.000000
vt 1.000000 0.000000
vt -1.000000 0.000000
vt 2.000000 0.000000
vt 1.000000 1.000000
vn 0.000000 1.000000 0.000000
vn 1.000000 -0.000000 0.000000
vn -0.000000 -0.000000 1.000000
vn -1.000000 -0.000000 -0.000000
vn 0.000000 0.000000 -1.000000
vn 0.000000 -1.000000 0.000000
s off
f 8/1/1 7/2/1 6/3/1
f 1/1/2 5/4/2 6/5/2
f 2/1/3 6/4/3 7/5/3
f 7/1/4 8/6/4 4/3/4
f 1/1/5 4/7/5 8/5/5
f 5/4/1 8/5/1 6/1/1
f 1/1/6 2/2/6 4/7/6
f 5/1/5 1/2/5 8/7/5
f 3/1/4 7/4/4 4/6/4
f 3/6/3 2/8/3 7/9/3
f 2/1/2 1/6/2 6/4/2
f 2/1/6 3/7/6 4/5/6
