# Blender v2.72 (sub 0) OBJ File: 'cube.blend'
# www.blender.org
o Cylinder
v 0.565094 0.066418 -0.967747
v 0.565094 2.066418 -0.967747
v 0.760185 0.066418 -0.948533
v 0.760185 2.066418 -0.948533
v 0.947778 0.066418 -0.891627
v 0.947778 2.066418 -0.891627
v 1.120664 0.066418 -0.799217
v 1.120664 2.066418 -0.799217
v 1.272201 0.066418 -0.674854
v 1.272201 2.066418 -0.674854
v 1.396564 0.066418 -0.523317
v 1.396564 2.066418 -0.523317
v 1.488974 0.066418 -0.350431
v 1.488974 2.066418 -0.350431
v 1.545879 0.066418 -0.162838
v 1.545879 2.066418 -0.162838
v 1.565094 0.066418 0.032253
v 1.565094 2.066418 0.032253
v 1.545880 0.066418 0.227343
v 1.545880 2.066418 0.227343
v 1.488974 0.066418 0.414936
v 1.488974 2.066418 0.414936
v 1.396564 0.066418 0.587823
v 1.396564 2.066418 0.587823
v 1.272201 0.066418 0.739359
v 1.272201 2.066418 0.739359
v 1.120664 0.066418 0.863722
v 1.120664 2.066418 0.863722
v 0.947778 0.066418 0.956132
v 0.947778 2.066418 0.956132
v 0.760184 0.066418 1.013038
v 0.760184 2.066418 1.013038
v 0.565094 0.066418 1.032253
v 0.565094 2.066418 1.032253
v 0.370004 0.066418 1.013038
v 0.370004 2.066418 1.013038
v 0.182410 0.066418 0.956132
v 0.182410 2.066418 0.956132
v 0.009524 0.066418 0.863722
v 0.009524 2.066418 0.863722
v -0.142013 0.066418 0.739359
v -0.142013 2.066418 0.739359
v -0.266376 0.066418 0.587822
v -0.266376 2.066418 0.587822
v -0.358786 0.066418 0.414935
v -0.415691 0.066418 0.227342
v -0.434906 0.066418 0.032252
v -0.415691 0.066418 -0.162839
v -0.415691 2.066418 -0.162839
v -0.358785 0.066418 -0.350432
v -0.358785 2.066418 -0.350432
v -0.266375 0.066418 -0.523319
v -0.266375 2.066418 -0.523319
v -0.142012 0.066418 -0.674855
v -0.142012 2.066418 -0.674855
v 0.009525 0.066418 -0.799218
v 0.009525 2.066418 -0.799218
v 0.182412 0.066418 -0.891627
v 0.182412 2.066418 -0.891627
v 0.370005 0.066418 -0.948533
v 0.370005 2.066418 -0.948533
v -1.153560 0.066418 -0.557239
v -1.153560 2.066418 -0.557239
v -1.096654 0.066418 -0.744832
v -1.096654 2.066418 -0.744832
v -1.004244 0.066418 -0.917719
v -1.004244 2.066418 -0.917719
v -0.879881 0.066418 -1.069255
v -0.879881 2.066418 -1.069255
vn 0.098000 0.000000 -0.995200
vn 0.290300 0.000000 -0.956900
vn 0.471400 0.000000 -0.881900
vn 0.634400 0.000000 -0.773000
vn 0.773000 0.000000 -0.634400
vn 0.881900 0.000000 -0.471400
vn 0.956900 0.000000 -0.290300
vn 0.995200 0.000000 -0.098000
vn 0.995200 0.000000 0.098000
vn 0.956900 0.000000 0.290300
vn 0.881900 0.000000 0.471400
vn 0.773000 0.000000 0.634400
vn 0.634400 0.000000 0.773000
vn 0.471400 0.000000 0.881900
vn 0.290300 0.000000 0.956900
vn 0.098000 0.000000 0.995200
vn -0.098000 0.000000 0.995200
vn -0.290300 0.000000 0.956900
vn -0.471400 0.000000 0.881900
vn -0.634400 0.000000 0.773000
vn -0.773000 0.000000 0.634400
vn 0.000000 -1.000000 -0.000000
vn 0.000000 1.000000 0.000000
vn -0.634400 0.000000 -0.773000
vn -0.471400 0.000000 -0.881900
vn -0.098000 0.000000 -0.995200
vn -0.290300 0.000000 -0.956900
vn -0.956900 0.000000 -0.290300
vn -0.881900 0.000000 -0.471400
vn -0.773000 0.000000 -0.634400
s off
f 1//1 2//1 4//1 3//1
f 3//2 4//2 6//2 5//2
f 5//3 6//3 8//3 7//3
f 7//4 8//4 10//4 9//4
f 9//5 10//5 12//5 11//5
f 11//6 12//6 14//6 13//6
f 13//7 14//7 16//7 15//7
f 15//8 16//8 18//8 17//8
f 17//9 18//9 20//9 19//9
f 19//10 20//10 22//10 21//10
f 21//11 22//11 24//11 23//11
f 23//12 24//12 26//12 25//12
f 25//13 26//13 28//13 27//13
f 27//14 28//14 30//14 29//14
f 29//15 30//15 32//15 31//15
f 31//16 32//16 34//16 33//16
f 33//17 34//17 36//17 35//17
f 35//18 36//18 38//18 37//18
f 37//19 38//19 40//19 39//19
f 39//20 40//20 42//20 41//20
f 41//21 42//21 44//21 43//21
f 54//22 52//22 66//22 68//22
f 53//23 55//23 69//23 67//23
f 55//3 54//3 68//3 69//3
f 54//24 55//24 57//24 56//24
f 56//25 57//25 59//25 58//25
f 60//26 61//26 2//26 1//26
f 58//27 59//27 61//27 60//27
f 1//22 3//22 5//22 7//22 9//22 11//22 13//22 15//22 17//22 19//22 21//22 23//22 25//22 27//22 29//22 31//22 33//22 35//22 37//22 39//22 41//22 43//22 45//22 46//22 47//22 48//22 50//22 52//22 54//22 56//22 58//22 60//22
f 62//28 63//28 65//28 64//28
f 64//29 65//29 67//29 66//29
f 66//30 67//30 69//30 68//30
f 51//23 53//23 67//23 65//23
f 52//22 50//22 64//22 66//22
f 49//23 51//23 65//23 63//23
f 50//22 48//22 62//22 64//22
f 48//19 49//19 63//19 62//19
