# Blender v2.72 (sub 0) OBJ File: 'wingL.blend'
# www.blender.org
o Cube_Cube.001
v -0.001409 0.002187 -0.000000
v -0.008008 0.009417 -0.000239
v -0.008008 0.002506 -0.019761
v -0.008008 -0.002292 -0.000239
v -0.005216 0.002187 0.022616
v -0.008799 0.008626 0.021049
v -0.011101 0.008064 -0.018408
v -0.044357 0.011249 -0.018408
v -0.008799 -0.001803 0.021049
v -0.325882 -0.030391 -0.098305
v -0.325882 -0.016499 -0.091699
v -1.132458 0.218545 -0.317966
v -0.325882 -0.040036 -0.091699
v -0.121771 -0.003097 -0.045855
v -0.123124 0.002461 -0.042762
v -1.124351 0.251848 -0.299435
v -1.124351 0.197903 -0.299435
v -0.123124 -0.006542 -0.042762
v -1.125926 0.270099 -0.002554
v -1.383662 0.311510 0.145726
v -0.967791 0.270099 0.169339
v -1.080260 0.263099 -0.042728
v -1.440297 0.270099 -0.164973
v -1.506610 0.303402 -0.104511
v -1.320791 0.303402 0.246768
v -0.935943 0.267337 0.161231
v -1.387760 0.249457 -0.156866
v -0.325882 -0.030391 0.098305
v -0.325882 -0.016499 0.091699
v -0.121771 -0.003097 0.045376
v -0.325882 -0.040036 0.091699
v -0.704074 0.223787 0.281686
v -0.699015 0.244567 0.270123
v -0.123124 0.002461 0.042284
v -0.123124 -0.006542 0.042284
v -0.699015 0.210907 0.270123
v -0.325882 -0.072314 -0.000000
v -0.121771 -0.020665 -0.000239
v -0.325882 -0.065708 -0.039244
v -0.827966 0.201324 0.023735
v -0.325882 -0.065708 0.039244
v -0.123124 -0.017573 0.017930
v -0.123124 -0.017573 -0.018408
v -1.124351 0.155407 -0.168248
v -0.699015 0.187947 0.179066
v -0.325882 0.029872 -0.000000
v -0.808911 0.323585 0.111134
v -0.325882 0.023266 -0.039244
v -0.121771 0.023595 -0.000239
v -0.325882 0.023266 0.039244
v -0.704232 0.312022 0.179066
v -1.210654 0.359957 -0.156866
v -0.123124 0.020502 -0.018408
v -0.123124 0.020502 0.017930
v -0.053538 0.012602 0.033103
v -0.051073 0.014694 0.035567
v -0.053538 0.018899 0.033103
v -0.053538 0.029112 0.016577
v -0.051073 0.031577 -0.000239
v -0.053538 0.029112 -0.017055
v -0.053538 0.018899 -0.033581
v -0.051073 0.014694 -0.036046
v -0.053538 0.012602 -0.033581
v -0.053538 0.005192 -0.017055
v -0.051073 0.002728 -0.000239
v -0.053538 0.005192 0.016577
v -0.124477 0.011321 -0.033581
v -0.325882 0.003547 -0.071980
v -1.202546 0.304942 -0.247786
v -1.366750 0.295295 -0.247786
v -1.381517 0.270099 -0.262553
v -1.366750 0.257564 -0.247786
v -1.116243 0.155358 -0.244419
v -0.325882 -0.054446 -0.071980
v -0.124477 -0.012599 -0.033581
v -1.451595 0.356496 -0.096404
v -1.324883 0.371263 0.145726
v -1.234744 0.329249 0.259544
v -0.966884 0.291062 0.280320
v -0.835352 0.275341 0.245010
v -0.826138 0.267520 0.235796
v -0.849896 0.264476 0.108449
v -1.000134 0.241618 -0.017303
v -1.332744 0.236766 -0.163507
v -0.693957 0.277695 0.235796
v -0.325882 0.003547 0.071980
v -0.124477 0.011321 0.033103
v -0.124477 -0.012599 0.033103
v -0.325882 -0.054446 0.071980
v -0.693957 0.188261 0.235796
v -0.058531 0.010185 0.028109
v -0.058531 0.010185 -0.028588
v -1.250526 0.236832 -0.214499
v -0.844544 0.258484 0.217127
v -0.058531 0.024119 0.028109
v -0.058531 0.024119 -0.028588
v -1.336829 0.326575 -0.217865
v -0.948215 0.310580 0.261651
vt 0.594429 0.963415
vt 0.606393 0.962691
vt 0.605975 0.966121
vt 0.596032 0.932372
vt 0.604832 0.931005
vt 0.838232 0.000000
vt 0.841465 0.003326
vt 0.835402 0.032667
vt 0.846701 0.034939
vt 0.839135 0.036837
vt 0.593331 0.968898
vt 0.581416 0.965083
vt 0.583334 0.962074
vt 0.571078 0.936234
vt 0.573346 0.933854
vt 0.585488 0.931610
vt 0.577088 0.929659
vt 0.937032 0.900416
vt 0.934238 0.896382
vt 0.940896 0.869943
vt 0.927646 0.870261
vt 0.936251 0.864733
vt 0.855018 0.934714
vt 0.846701 0.911958
vt 0.853712 0.903520
vt 0.942703 0.858924
vt 0.946987 0.860743
vt 0.925267 0.903520
vt 0.923887 0.900994
vt 0.093274 0.000000
vt 0.106013 0.029325
vt 0.104197 0.030972
vt 0.078808 0.003252
vt 0.091619 0.002185
vt 0.092702 0.031771
vt 0.100927 0.034420
vt 0.497346 0.774813
vt 0.504732 0.772046
vt 0.557166 0.893818
vt 0.521250 0.767870
vt 0.564605 0.891122
vt 0.358142 0.229018
vt 0.378175 0.227385
vt 0.379506 0.063095
vt 0.395918 0.067223
vt 0.414113 0.167640
vt 0.424066 0.079355
vt 0.903071 0.682059
vt 0.934507 0.147360
vt 0.949426 0.137914
vt 0.888245 0.686846
vt 0.893880 0.165641
vt 0.883598 0.012542
vt 0.892448 0.000000
vt 0.022779 0.745235
vt 0.065394 0.834421
vt 0.055893 0.913068
vt 0.933960 0.816535
vt 0.930942 0.816472
vt 0.949426 0.861637
vt 0.924011 0.817878
vt 0.192890 0.740167
vt 0.302911 0.897548
vt 0.158206 0.995145
vt 0.780253 0.885381
vt 0.846701 0.973165
vt 0.815731 1.000000
vt 0.959627 0.000000
vt 0.977161 0.128844
vt 0.959816 0.133097
vt 1.000000 0.012163
vt 1.000000 0.122344
vt 0.287461 0.625317
vt 0.358142 0.848929
vt 0.327220 0.534596
vt 0.358142 0.617630
vt 0.742384 0.913222
vt 0.709110 0.868064
vt 0.729457 0.817214
vt 0.741825 0.641299
vt 0.761222 0.633317
vt 0.165203 0.713351
vt 0.280472 0.605241
vt 0.171611 0.658510
vt 0.244253 0.553609
vt 0.319535 0.528881
vt 0.307294 0.541602
vt 0.111541 0.954966
vt 0.109177 0.919258
vt 0.050641 0.924454
vt 0.099705 0.883545
vt 0.746753 0.194264
vt 0.756081 0.196694
vt 0.761905 0.465378
vt 0.773418 0.200625
vt 0.791955 0.468752
vt 0.331085 0.444131
vt 0.328627 0.443000
vt 0.810006 0.071825
vt 0.813712 0.073671
vt 0.832760 0.030356
vt 0.821355 0.076282
vt 0.140460 0.198845
vt 0.108739 0.073958
vt 0.111286 0.073061
vt 0.125494 0.199461
vt 0.101983 0.075156
vt 0.321068 0.440966
vt 0.295318 0.438926
vt 0.080207 0.075439
vt 0.091775 0.075128
vt 0.103492 0.201249
vt 0.082026 0.031302
vt 0.868216 0.694733
vt 0.915081 0.822352
vt 0.905372 0.827533
vt 0.078664 0.203810
vt 0.178614 0.542051
vt 0.068494 0.744717
vt 0.056802 0.207169
vt 0.989306 0.259398
vt 0.952662 0.217418
vt 0.949426 0.141994
vt 0.261746 0.446445
vt 0.663012 0.402770
vt 0.709110 0.468941
vt 0.590314 0.762113
vt 0.645874 0.071743
vt 0.709110 0.133840
vt 0.828886 0.482926
vt 0.569448 0.761559
vt 0.545170 0.763523
vt 0.479837 0.150470
vt 0.490677 0.000000
vt 0.587210 0.889868
vt 0.575832 0.889941
vt 0.596732 0.889288
vt 0.831829 0.077483
vt 0.945488 0.891688
vt 0.855018 0.904591
vt 0.554081 0.895776
vt 0.909781 0.680432
vt 0.000000 0.757178
vt 0.949426 0.060481
vt 0.746575 0.464866
vt 0.146555 0.198930
vt 0.846701 0.704154
vt 0.039858 0.210318
vt 0.989306 0.133097
vt 0.795548 0.205046
vn 0.867400 0.495000 0.050600
vn 0.393100 0.899800 0.189500
vn 0.321900 0.389200 0.863100
vn 0.321900 0.810000 0.490100
vn 0.814200 0.517200 -0.263600
vn 0.424300 0.629900 -0.650500
vn 0.436300 0.888800 -0.140500
vn 0.371800 0.802300 -0.467000
vn 0.293500 -0.385700 -0.874700
vn -0.114800 -0.985200 -0.127500
vn -0.231600 -0.971300 0.053500
vn 0.032500 -0.912000 -0.408900
vn 0.735000 -0.676700 0.042800
vn -0.019400 -0.752600 0.658200
vn -0.156100 -0.987600 0.016800
vn -0.126400 -0.837400 0.531700
vn 0.175100 0.422800 -0.889200
vn 0.108200 0.697200 -0.708700
vn -0.004900 0.503500 -0.864000
vn -0.069800 0.653800 -0.753400
vn 0.351800 0.388300 -0.851700
vn -0.081900 0.539300 -0.838100
vn 0.376000 0.868400 -0.323400
vn -0.025200 0.703500 -0.710200
vn -0.006200 -0.669400 -0.742900
vn -0.079400 -0.794200 -0.602500
vn -0.300600 -0.854100 -0.424400
vn -0.305500 -0.728700 0.612900
vn 0.274700 -0.699800 -0.659300
vn 0.291800 -0.853200 -0.432400
vn 0.258000 -0.823500 -0.505300
vn 0.332300 -0.935400 -0.120500
vn -0.109700 -0.990200 0.086000
vn -0.682400 0.658700 0.316900
vn -0.532600 0.638100 -0.556000
vn -0.496300 0.608800 -0.618900
vn -0.098000 -0.995000 -0.018900
vn -0.055400 -0.972400 0.226600
vn -0.313400 0.911000 0.268100
vn -0.041700 0.711200 0.701800
vn -0.082700 -0.993400 0.079100
vn -0.377800 -0.720000 0.582200
vn -0.062200 -0.993600 0.094100
vn -0.497600 0.864400 0.072200
vn -0.298600 -0.424000 0.855000
vn -0.515200 -0.834900 -0.193500
vn -0.160800 -0.904200 0.395800
vn -0.140900 -0.982700 -0.120200
vn 0.590800 0.346400 0.728600
vn 0.643000 0.537100 0.546000
vn 0.113600 0.461800 0.879700
vn 0.157400 0.599900 0.784500
vn 0.151800 0.508600 0.847500
vn -0.004900 0.503500 0.864000
vn 0.098900 0.723300 0.683400
vn -0.069800 0.653800 0.753400
vn 0.276200 -0.699900 0.658700
vn 0.271100 -0.777200 0.567900
vn 0.291800 -0.853200 0.432400
vn 0.332300 -0.935400 0.120500
vn -0.121900 -0.689100 0.714300
vn -0.451600 -0.850300 0.270100
vn -0.318000 -0.812300 0.489000
vn -0.438900 -0.559100 0.703400
vn 0.245100 -0.952600 0.180400
vn 0.308900 -0.933500 0.182100
vn 0.251700 -0.912800 0.321700
vn 0.317700 -0.812300 0.489200
vn 0.244700 -0.952700 -0.180400
vn 0.251000 -0.913000 -0.321700
vn 0.308900 -0.933500 -0.182100
vn 0.317700 -0.812300 -0.489200
vn -0.330700 -0.665000 0.669700
vn -0.315500 -0.596900 0.737600
vn -0.262700 -0.964500 -0.027300
vn -0.460400 -0.485900 -0.742900
vn -0.454500 -0.836800 0.305200
vn -0.431800 -0.852900 0.293400
vn -0.548600 -0.408300 0.729600
vn -0.419500 -0.907300 -0.029400
vn 0.405200 0.769700 -0.493300
vn 0.075300 0.953400 0.292300
vn 0.652300 0.695000 0.302400
vn 0.059800 0.860300 -0.506300
vn 0.369200 0.916400 -0.154300
vn 0.369800 0.809200 -0.456600
vn 0.014200 0.993400 0.113500
vn 0.132400 0.984200 -0.117300
vn 0.030900 0.985000 -0.170000
vn -0.119400 0.984700 -0.126800
vn 0.066500 0.851000 -0.520900
vn -0.155000 0.929300 -0.335300
vn 0.031300 0.985000 0.170000
vn 0.067700 0.850900 0.520900
vn -0.119400 0.984700 0.126800
vn -0.155000 0.929300 0.335300
vn 0.731000 0.671200 0.123000
vn 0.457000 0.888100 0.050000
vn 0.365200 0.620700 0.693800
vn 0.320900 0.796800 0.512100
vn 0.730200 0.660800 -0.173500
vn 0.398700 0.420300 -0.815100
vn 0.448900 0.872400 -0.193600
vn 0.372000 0.782200 -0.499700
vn -0.231300 -0.970900 0.061500
vn 0.220100 -0.518200 -0.826500
vn 0.021300 -0.772600 -0.634500
vn 0.476300 -0.802300 -0.359700
vn 0.556800 -0.825300 0.093700
vn 0.099000 -0.439500 0.892800
vn -0.114800 -0.985200 0.127500
vn -0.177700 -0.928800 0.325200
vn 0.149900 0.508400 -0.848000
vn 0.097400 0.723300 -0.683700
vn -0.001100 0.486000 -0.873900
vn -0.076000 0.711900 -0.698200
vn 0.354600 0.401500 -0.844400
vn -0.088000 0.500600 -0.861200
vn 0.358500 0.654700 -0.665500
vn -0.066000 0.644100 -0.762100
vn 0.050200 -0.564300 -0.824000
vn -0.086800 -0.804300 -0.587800
vn -0.290100 -0.699900 -0.652700
vn -0.308300 -0.774000 -0.553100
vn 0.276400 -0.543000 -0.792900
vn 0.268000 -0.699800 -0.662200
vn 0.269900 -0.777400 -0.568100
vn 0.290500 -0.817800 -0.496700
vn -0.168900 -0.929800 0.326900
vn -0.677500 0.666400 0.311300
vn -0.679100 -0.609500 -0.409100
vn -0.402300 0.803900 -0.438200
vn -0.104000 -0.990000 0.095700
vn -0.056300 -0.984400 0.166700
vn -0.550300 0.541400 0.635700
vn -0.030300 -0.360000 0.932500
vn -0.069900 -0.995500 0.064300
vn -0.014300 -0.999400 0.030900
vn -0.239600 -0.845200 0.477800
vn -0.016700 -0.999500 0.027000
vn -0.056300 -0.992500 0.108900
vn -0.331500 -0.922100 -0.199700
vn -0.337300 -0.159900 0.927700
vn -0.251700 -0.878100 -0.406900
vn 0.568300 0.290100 0.770000
vn 0.634100 0.507600 0.583300
vn -0.221100 -0.872700 -0.435200
vn 0.148200 0.700600 0.698000
vn 0.177100 0.422600 0.888800
vn -0.001100 0.486000 0.873900
vn 0.109900 0.697000 0.708600
vn -0.076000 0.711900 0.698200
vn 0.278100 -0.542800 0.792500
vn 0.259100 -0.823300 0.505000
vn 0.268000 -0.699800 0.662200
vn 0.290500 -0.817800 0.496700
vn 0.020300 -0.564900 0.824900
vn -0.433000 -0.690400 0.579600
vn -0.252400 -0.781200 0.570900
vn -0.422100 -0.784100 0.455100
vn 0.242300 -0.956700 0.161000
vn 0.308900 -0.933500 0.181900
vn 0.250400 -0.915500 0.314900
vn 0.300100 -0.898200 0.321200
vn 0.241900 -0.956800 -0.161100
vn 0.249700 -0.915600 -0.315000
vn 0.308900 -0.933500 -0.181900
vn 0.300100 -0.898200 -0.321200
vn -0.239100 -0.957500 -0.161200
vn -0.277200 -0.745400 0.606200
vn -0.177200 -0.930600 -0.320200
vn -0.364200 -0.930600 -0.038200
vn -0.468000 -0.871500 0.146700
vn -0.547600 -0.835000 0.053400
vn -0.255100 -0.958200 0.129200
vn -0.469200 -0.881900 0.046700
vn 0.537700 0.831400 0.139900
vn 0.093700 0.995300 0.025100
vn 0.645200 0.654500 0.394200
vn 0.103900 0.859200 0.501100
vn 0.380700 0.801000 -0.462000
vn 0.367000 0.796800 -0.480000
vn 0.084500 0.990900 -0.104700
vn -0.143000 0.841100 -0.521700
vn 0.030100 0.985700 -0.165900
vn -0.110800 0.981100 -0.158700
vn 0.064600 0.854800 -0.514900
vn -0.095900 0.855400 -0.509000
vn 0.030500 0.985700 0.165900
vn 0.065800 0.854700 0.514900
vn -0.110800 0.981100 0.158700
vn -0.095900 0.855400 0.509000
s off
f 2/1/1 6/2/1 5/3/1
f 59/4/2 58/5/2 6/2/2
f 5/6/3 6/7/3 57/8/3
f 6/7/4 58/9/4 95/10/4
f 1/11/5 3/12/5 7/13/5
f 3/12/6 62/14/6 61/15/6
f 2/1/7 7/13/7 60/16/7
f 7/13/8 61/15/8 96/17/8
f 1/18/9 4/19/9 8/20/9
f 4/19/10 65/21/10 64/22/10
f 3/23/11 8/24/11 63/25/11
f 64/22/12 92/26/12 63/27/12
f 5/28/13 9/29/13 4/19/13
f 5/30/14 56/31/14 55/32/14
f 4/33/15 9/34/15 66/35/15
f 9/34/16 55/32/16 91/36/16
f 10/37/17 11/38/17 15/39/17
f 11/38/18 68/40/18 67/41/18
f 15/39/19 61/15/19 62/14/19
f 67/41/20 96/17/20 61/15/20
f 10/37/21 12/42/21 16/43/21
f 71/44/22 70/45/22 16/43/22
f 11/38/23 16/43/23 69/46/23
f 16/43/24 70/45/24 97/47/24
f 13/48/25 17/49/25 12/50/25
f 74/51/26 73/52/26 17/49/26
f 17/49/27 72/53/27 71/54/27
f 73/55/28 93/56/28 72/57/28
f 14/58/29 18/59/29 13/48/29
f 62/60/30 63/27/30 18/59/30
f 13/48/31 18/59/31 75/61/31
f 63/27/32 92/26/32 75/61/32
f 19/62/33 20/63/33 24/64/33
f 77/65/34 76/66/34 24/67/34
f 24/68/35 70/69/35 71/70/35
f 24/68/36 76/71/36 97/72/36
f 21/73/37 25/74/37 20/63/37
f 80/75/38 79/76/38 25/74/38
f 20/77/39 25/78/39 78/79/39
f 25/78/40 79/80/40 98/81/40
f 19/62/41 22/82/41 26/83/41
f 22/82/42 83/84/42 82/85/42
f 21/73/43 26/83/43 81/86/43
f 82/85/44 94/87/44 81/86/44
f 23/88/45 27/89/45 22/82/45
f 71/90/46 72/57/46 27/89/46
f 27/89/47 84/91/47 83/84/47
f 27/89/48 72/57/48 93/56/48
f 28/92/49 29/93/49 33/94/49
f 29/93/50 86/95/50 85/96/50
f 32/97/51 33/98/51 79/76/51
f 85/96/52 98/81/52 79/80/52
f 28/92/53 30/99/53 34/100/53
f 56/101/54 57/8/54 34/100/54
f 29/93/55 34/100/55 87/102/55
f 57/8/56 95/10/56 87/102/56
f 31/103/57 35/104/57 30/105/57
f 31/103/58 89/106/58 88/107/58
f 35/104/59 55/32/59 56/31/59
f 88/107/60 91/36/60 55/32/60
f 32/97/61 36/108/61 31/103/61
f 80/75/62 81/86/62 36/108/62
f 36/108/63 90/109/63 89/106/63
f 36/108/64 81/86/64 94/87/64
f 38/110/65 42/111/65 41/112/65
f 65/113/66 66/35/66 42/111/66
f 42/111/67 88/107/67 89/106/67
f 66/35/68 91/36/68 88/107/68
f 39/114/69 43/115/69 38/116/69
f 74/51/70 75/61/70 43/115/70
f 43/115/71 64/22/71 65/21/71
f 75/61/72 92/26/72 64/22/72
f 37/117/73 40/118/73 44/119/73
f 40/118/74 83/84/74 84/91/74
f 39/120/75 44/119/75 73/55/75
f 84/121/76 93/122/76 73/123/76
f 41/112/77 45/124/77 40/118/77
f 41/112/78 89/106/78 90/109/78
f 45/124/79 82/85/79 83/84/79
f 90/109/80 94/87/80 82/85/80
f 47/125/81 51/126/81 50/127/81
f 77/128/82 78/129/82 51/126/82
f 51/130/83 85/96/83 86/95/83
f 78/79/84 98/81/84 85/96/84
f 46/131/85 48/132/85 52/133/85
f 68/40/86 69/46/86 52/133/86
f 47/125/87 52/133/87 76/134/87
f 69/46/88 97/47/88 76/134/88
f 49/135/89 53/136/89 48/132/89
f 59/4/90 60/16/90 53/136/90
f 53/136/91 67/41/91 68/40/91
f 60/16/92 96/17/92 67/41/92
f 50/127/93 54/137/93 49/135/93
f 86/95/94 87/102/94 54/138/94
f 54/137/95 58/5/95 59/4/95
f 87/102/96 95/10/96 58/9/96
f 1/11/97 2/1/97 5/3/97
f 2/1/98 59/4/98 6/2/98
f 56/101/99 5/6/99 57/8/99
f 57/8/100 6/7/100 95/10/100
f 2/1/101 1/11/101 7/13/101
f 7/13/102 3/12/102 61/15/102
f 59/4/103 2/1/103 60/16/103
f 60/16/104 7/13/104 96/17/104
f 3/139/105 1/18/105 8/20/105
f 8/20/106 4/19/106 64/22/106
f 62/140/107 3/23/107 63/25/107
f 8/20/108 64/22/108 63/27/108
f 1/18/109 5/28/109 4/19/109
f 9/34/110 5/30/110 55/32/110
f 65/113/111 4/33/111 66/35/111
f 66/35/112 9/34/112 91/36/112
f 14/141/113 10/37/113 15/39/113
f 15/39/114 11/38/114 67/41/114
f 14/141/115 15/39/115 62/14/115
f 15/39/116 67/41/116 61/15/116
f 11/38/117 10/37/117 16/43/117
f 12/42/118 71/44/118 16/43/118
f 68/40/119 11/38/119 69/46/119
f 69/46/120 16/43/120 97/47/120
f 10/142/121 13/48/121 12/50/121
f 13/48/122 74/51/122 17/49/122
f 12/50/123 17/49/123 71/54/123
f 17/143/124 73/55/124 72/57/124
f 10/142/125 14/58/125 13/48/125
f 14/58/126 62/60/126 18/59/126
f 74/51/127 13/48/127 75/61/127
f 18/59/128 63/27/128 75/61/128
f 23/88/129 19/62/129 24/64/129
f 20/77/130 77/65/130 24/67/130
f 23/144/131 24/68/131 71/70/131
f 70/69/132 24/68/132 97/72/132
f 19/62/133 21/73/133 20/63/133
f 21/73/134 80/75/134 25/74/134
f 77/65/135 20/77/135 78/79/135
f 78/79/136 25/78/136 98/81/136
f 21/73/137 19/62/137 26/83/137
f 26/83/138 22/82/138 82/85/138
f 80/75/139 21/73/139 81/86/139
f 26/83/140 82/85/140 81/86/140
f 19/62/141 23/88/141 22/82/141
f 23/88/142 71/90/142 27/89/142
f 22/82/143 27/89/143 83/84/143
f 84/91/144 27/89/144 93/56/144
f 32/145/145 28/92/145 33/94/145
f 33/94/146 29/93/146 85/96/146
f 80/75/147 32/97/147 79/76/147
f 33/94/148 85/96/148 79/80/148
f 29/93/149 28/92/149 34/100/149
f 30/99/150 56/101/150 34/100/150
f 86/95/151 29/93/151 87/102/151
f 34/100/152 57/8/152 87/102/152
f 28/146/153 31/103/153 30/105/153
f 35/104/154 31/103/154 88/107/154
f 30/105/155 35/104/155 56/31/155
f 35/104/156 88/107/156 55/32/156
f 28/146/157 32/97/157 31/103/157
f 32/97/158 80/75/158 36/108/158
f 31/103/159 36/108/159 89/106/159
f 90/109/160 36/108/160 94/87/160
f 37/117/161 38/110/161 41/112/161
f 38/110/162 65/113/162 42/111/162
f 41/112/163 42/111/163 89/106/163
f 42/111/164 66/35/164 88/107/164
f 37/147/165 39/114/165 38/116/165
f 39/114/166 74/51/166 43/115/166
f 38/116/167 43/115/167 65/21/167
f 43/115/168 75/61/168 64/22/168
f 39/120/169 37/117/169 44/119/169
f 44/119/170 40/118/170 84/91/170
f 74/148/171 39/120/171 73/55/171
f 44/149/172 84/121/172 73/123/172
f 37/117/173 41/112/173 40/118/173
f 45/124/174 41/112/174 90/109/174
f 40/118/175 45/124/175 83/84/175
f 45/124/176 90/109/176 82/85/176
f 46/131/177 47/125/177 50/127/177
f 47/125/178 77/128/178 51/126/178
f 50/150/179 51/130/179 86/95/179
f 51/130/180 78/79/180 85/96/180
f 47/125/181 46/131/181 52/133/181
f 48/132/182 68/40/182 52/133/182
f 77/128/183 47/125/183 76/134/183
f 52/133/184 69/46/184 76/134/184
f 46/131/185 49/135/185 48/132/185
f 49/135/186 59/4/186 53/136/186
f 48/132/187 53/136/187 68/40/187
f 53/136/188 60/16/188 67/41/188
f 46/131/189 50/127/189 49/135/189
f 50/150/190 86/95/190 54/138/190
f 49/135/191 54/137/191 59/4/191
f 54/138/192 87/102/192 58/9/192
