# Blender v2.72 (sub 0) OBJ File: 'wing.blend'
# www.blender.org
o Cube_Cube.001
v -0.003999 0.002187 -0.000000
v 0.002600 0.009417 -0.000239
v 0.002600 0.002506 -0.019761
v 0.002600 -0.002292 -0.000239
v -0.000192 0.002187 0.022616
v 0.003390 0.008626 0.021049
v 0.005692 0.008064 -0.018408
v 0.038948 0.011249 -0.018408
v 0.003390 -0.001803 0.021049
v 0.320474 -0.030391 -0.098305
v 0.320474 -0.016499 -0.091699
v 1.127050 0.218545 -0.317966
v 0.320474 -0.040036 -0.091699
v 0.116362 -0.003097 -0.045855
v 0.117715 0.002461 -0.042762
v 1.118942 0.251848 -0.299435
v 1.118942 0.197903 -0.299435
v 0.117715 -0.006542 -0.042762
v 1.120517 0.270099 -0.002554
v 1.378254 0.311510 0.145726
v 0.962383 0.270099 0.169339
v 1.074851 0.263099 -0.042728
v 1.434888 0.270099 -0.164973
v 1.501202 0.303402 -0.104511
v 1.315382 0.303402 0.246768
v 0.930535 0.267337 0.161231
v 1.382351 0.249457 -0.156866
v 0.320474 -0.030391 0.098305
v 0.320474 -0.016499 0.091699
v 0.116362 -0.003097 0.045376
v 0.320474 -0.040036 0.091699
v 0.698666 0.223787 0.281686
v 0.693607 0.244567 0.270123
v 0.117715 0.002461 0.042284
v 0.117715 -0.006542 0.042284
v 0.693607 0.210907 0.270123
v 0.320474 -0.072314 -0.000000
v 0.116362 -0.020665 -0.000239
v 0.320474 -0.065708 -0.039244
v 0.822557 0.201324 0.023735
v 0.320474 -0.065708 0.039244
v 0.117715 -0.017573 0.017930
v 0.117715 -0.017573 -0.018408
v 1.118942 0.155407 -0.168248
v 0.693607 0.187947 0.179066
v 0.320474 0.029872 -0.000000
v 0.803503 0.323585 0.111134
v 0.320474 0.023266 -0.039244
v 0.116362 0.023595 -0.000239
v 0.320474 0.023266 0.039244
v 0.698824 0.312022 0.179066
v 1.205245 0.359957 -0.156866
v 0.117715 0.020502 -0.018408
v 0.117715 0.020502 0.017930
v 0.048129 0.012602 0.033103
v 0.045665 0.014694 0.035567
v 0.048129 0.018899 0.033103
v 0.048129 0.029112 0.016577
v 0.045665 0.031577 -0.000239
v 0.048129 0.029112 -0.017055
v 0.048129 0.018899 -0.033581
v 0.045665 0.014694 -0.036046
v 0.048129 0.012602 -0.033581
v 0.048129 0.005192 -0.017055
v 0.045665 0.002728 -0.000239
v 0.048129 0.005192 0.016577
v 0.119068 0.011321 -0.033581
v 0.320474 0.003547 -0.071980
v 1.197138 0.304942 -0.247786
v 1.361341 0.295295 -0.247786
v 1.376109 0.270099 -0.262553
v 1.361341 0.257564 -0.247786
v 1.110835 0.155358 -0.244419
v 0.320474 -0.054446 -0.071980
v 0.119068 -0.012599 -0.033581
v 1.446187 0.356496 -0.096404
v 1.319474 0.371263 0.145726
v 1.229336 0.329249 0.259544
v 0.961476 0.291062 0.280320
v 0.829944 0.275341 0.245010
v 0.820730 0.267520 0.235796
v 0.844488 0.264476 0.108449
v 0.994726 0.241618 -0.017303
v 1.327336 0.236766 -0.163507
v 0.688548 0.277695 0.235796
v 0.320474 0.003547 0.071980
v 0.119068 0.011321 0.033103
v 0.119068 -0.012599 0.033103
v 0.320474 -0.054446 0.071980
v 0.688548 0.188261 0.235796
v 0.053123 0.010185 0.028109
v 0.053123 0.010185 -0.028588
v 1.245118 0.236832 -0.214499
v 0.839136 0.258484 0.217127
v 0.053123 0.024119 0.028109
v 0.053123 0.024119 -0.028588
v 1.331421 0.326575 -0.217865
v 0.942806 0.310580 0.261651
vt 0.605975 0.002777
vt 0.606393 0.006207
vt 0.594429 0.005483
vt 0.604832 0.037893
vt 0.596032 0.036526
vt 0.838232 1.000000
vt 0.832760 0.969644
vt 0.835402 0.967333
vt 0.841465 0.996674
vt 0.839135 0.963163
vt 0.593331 0.000000
vt 0.583334 0.006825
vt 0.581416 0.003815
vt 0.573346 0.035045
vt 0.585488 0.037289
vt 0.577088 0.039239
vt 0.937032 0.003104
vt 0.945488 0.011832
vt 0.940896 0.033577
vt 0.934238 0.007139
vt 0.936251 0.038787
vt 0.855018 0.903520
vt 0.855018 0.933644
vt 0.853712 0.934714
vt 0.946986 0.042777
vt 0.942703 0.044597
vt 0.923887 0.002527
vt 0.925267 0.000000
vt 0.093274 0.995145
vt 0.091619 0.992960
vt 0.104197 0.964173
vt 0.078808 0.991893
vt 0.082026 0.963843
vt 0.092702 0.963374
vt 0.100927 0.960725
vt 0.497346 0.194085
vt 0.554081 0.073123
vt 0.557166 0.075080
vt 0.504732 0.196852
vt 0.564605 0.077777
vt 0.571078 0.032664
vt 0.378175 0.741513
vt 0.395918 0.901675
vt 0.379506 0.905803
vt 0.521250 0.201028
vt 0.414113 0.801258
vt 0.424066 0.889543
vt 0.949426 0.765606
vt 0.934506 0.756160
vt 0.903070 0.221461
vt 0.893879 0.737880
vt 0.888245 0.216674
vt 0.892448 0.903520
vt 0.883598 0.890978
vt 0.055893 0.082078
vt 0.065394 0.160724
vt 0.022779 0.249911
vt 0.930942 0.087049
vt 0.933960 0.086985
vt 0.949426 0.041883
vt 0.924011 0.085643
vt 0.192890 0.254978
vt 0.111541 0.040179
vt 0.158206 0.000000
vt 0.815731 0.000000
vt 0.846700 0.026835
vt 0.780253 0.114620
vt 0.959816 0.000000
vt 0.977161 0.004253
vt 0.959627 0.133098
vt 1.000000 0.010753
vt 0.302911 0.097598
vt 0.358142 0.146216
vt 0.287461 0.369829
vt 0.358142 0.377516
vt 0.327220 0.460549
vt 0.742383 0.086778
vt 0.729457 0.182786
vt 0.709110 0.131936
vt 0.761222 0.366683
vt 0.280471 0.389904
vt 0.165203 0.281795
vt 0.244253 0.441537
vt 0.319535 0.466264
vt 0.307294 0.453543
vt 0.109177 0.075888
vt 0.050640 0.070692
vt 0.171611 0.336635
vt 0.099705 0.111600
vt 0.746753 0.805736
vt 0.746575 0.535134
vt 0.761905 0.534622
vt 0.756081 0.803306
vt 0.791955 0.531248
vt 0.331085 0.551014
vt 0.741825 0.358701
vt 0.813712 0.926329
vt 0.773418 0.799375
vt 0.821355 0.923718
vt 0.111286 0.922085
vt 0.108739 0.921188
vt 0.140460 0.796300
vt 0.101983 0.919990
vt 0.106013 0.965820
vt 0.321068 0.554180
vt 0.125494 0.795684
vt 0.295318 0.556219
vt 0.103492 0.793896
vt 0.091775 0.920018
vt 0.080207 0.919706
vt 0.905372 0.075987
vt 0.915081 0.081169
vt 0.868216 0.208788
vt 0.927646 0.033259
vt 0.078664 0.791336
vt 0.056802 0.787977
vt 0.068494 0.250429
vt 0.178614 0.453094
vt 0.039858 0.784827
vt 0.949426 0.250501
vt 0.952662 0.175078
vt 0.989306 0.133098
vt 0.261746 0.548700
vt 0.590314 0.206785
vt 0.709110 0.499957
vt 0.663012 0.566129
vt 0.709110 0.835058
vt 0.645874 0.897155
vt 0.828886 0.517074
vt 0.569448 0.207339
vt 0.479837 0.818428
vt 0.490677 0.968898
vt 0.545170 0.205375
vt 0.575832 0.078957
vt 0.587210 0.079030
vt 0.596732 0.079610
vt 0.831829 0.922517
vt 0.846700 0.965061
vt 0.846701 0.926277
vt 0.358142 0.739881
vt 0.909781 0.223088
vt 0.000000 0.237967
vt 0.949426 0.072616
vt 1.000000 0.120935
vt 0.328627 0.552146
vt 0.810005 0.928175
vt 0.146555 0.796216
vt 0.846701 0.199367
vt 0.989306 0.259398
vt 0.795548 0.794954
vn -0.867400 0.495000 0.050600
vn -0.393100 0.899800 0.189500
vn -0.365200 0.620700 0.693800
vn -0.320900 0.796800 0.512100
vn -0.730200 0.660800 -0.173500
vn -0.398700 0.420300 -0.815100
vn -0.448900 0.872400 -0.193600
vn -0.372000 0.782200 -0.499700
vn 0.231300 -0.970900 0.061500
vn -0.220100 -0.518200 -0.826500
vn -0.021300 -0.772600 -0.634500
vn -0.032500 -0.912000 -0.408900
vn -0.735000 -0.676700 0.042800
vn -0.099000 -0.439500 0.892800
vn 0.114800 -0.985200 0.127500
vn 0.177700 -0.928800 0.325200
vn -0.149900 0.508400 -0.848000
vn -0.097400 0.723300 -0.683700
vn 0.004900 0.503500 -0.864000
vn 0.069800 0.653800 -0.753400
vn -0.354600 0.401500 -0.844400
vn 0.081900 0.539300 -0.838100
vn -0.358500 0.654700 -0.665500
vn 0.066000 0.644100 -0.762100
vn 0.006200 -0.669400 -0.742900
vn 0.079400 -0.794200 -0.602500
vn 0.300600 -0.854100 -0.424400
vn 0.305500 -0.728700 0.612900
vn -0.274700 -0.699800 -0.659300
vn -0.291800 -0.853200 -0.432400
vn -0.269900 -0.777400 -0.568100
vn -0.332300 -0.935400 -0.120500
vn 0.168900 -0.929800 0.326900
vn 0.682400 0.658700 0.316900
vn 0.532600 0.638100 -0.556000
vn 0.402300 0.803900 -0.438200
vn 0.098000 -0.995000 -0.018900
vn 0.055400 -0.972400 0.226600
vn 0.550300 0.541400 0.635700
vn 0.030300 -0.360000 0.932500
vn 0.069900 -0.995500 0.064300
vn 0.014300 -0.999400 0.030900
vn 0.239600 -0.845200 0.477800
vn 0.497600 0.864400 0.072200
vn 0.298600 -0.424000 0.855000
vn 0.515200 -0.834900 -0.193500
vn 0.160800 -0.904200 0.395800
vn 0.251700 -0.878100 -0.407000
vn -0.568300 0.290100 0.770000
vn -0.634100 0.507600 0.583300
vn 0.221100 -0.872700 -0.435200
vn -0.157400 0.599900 0.784500
vn -0.177100 0.422600 0.888800
vn 0.004900 0.503500 0.864000
vn -0.109900 0.697000 0.708600
vn 0.069800 0.653800 0.753400
vn -0.276200 -0.699900 0.658700
vn -0.259100 -0.823300 0.505000
vn -0.291800 -0.853200 0.432400
vn -0.332300 -0.935400 0.120500
vn 0.121900 -0.689100 0.714300
vn 0.451600 -0.850300 0.270100
vn 0.318000 -0.812300 0.489000
vn 0.422100 -0.784100 0.455100
vn -0.245100 -0.952600 0.180400
vn -0.308900 -0.933500 0.182100
vn -0.251700 -0.912800 0.321700
vn -0.317700 -0.812300 0.489200
vn -0.244700 -0.952700 -0.180400
vn -0.251000 -0.913000 -0.321700
vn -0.308900 -0.933500 -0.182100
vn -0.317700 -0.812300 -0.489200
vn 0.239100 -0.957500 -0.161200
vn 0.277200 -0.745400 0.606200
vn 0.177200 -0.930600 -0.320200
vn 0.460400 -0.485900 -0.742900
vn 0.454500 -0.836800 0.305200
vn 0.547600 -0.835000 0.053400
vn 0.548600 -0.408300 0.729600
vn 0.419500 -0.907300 -0.029400
vn -0.405200 0.769700 -0.493300
vn -0.075300 0.953400 0.292300
vn -0.652300 0.695000 0.302400
vn -0.059800 0.860300 -0.506300
vn -0.380700 0.801000 -0.462000
vn -0.369800 0.809200 -0.456600
vn -0.084500 0.990900 -0.104700
vn -0.132400 0.984200 -0.117300
vn -0.030900 0.985000 -0.170000
vn 0.119400 0.984700 -0.126800
vn -0.066500 0.851000 -0.520900
vn 0.155000 0.929300 -0.335300
vn -0.031300 0.985000 0.170000
vn -0.067700 0.850900 0.520900
vn 0.119400 0.984700 0.126800
vn 0.155000 0.929300 0.335300
vn -0.731000 0.671200 0.123000
vn -0.457000 0.888100 0.050000
vn -0.321900 0.389200 0.863100
vn -0.321900 0.810000 0.490100
vn -0.814200 0.517200 -0.263600
vn -0.424300 0.629900 -0.650500
vn -0.436300 0.888800 -0.140500
vn -0.371800 0.802300 -0.467000
vn -0.293500 -0.385700 -0.874700
vn 0.114800 -0.985200 -0.127500
vn 0.231600 -0.971300 0.053500
vn -0.476300 -0.802300 -0.359700
vn -0.556800 -0.825300 0.093700
vn 0.019400 -0.752600 0.658200
vn 0.156100 -0.987600 0.016800
vn 0.126400 -0.837400 0.531700
vn -0.175100 0.422800 -0.889200
vn -0.108200 0.697200 -0.708700
vn 0.001100 0.486000 -0.873900
vn 0.076000 0.711900 -0.698200
vn -0.351800 0.388300 -0.851700
vn 0.088000 0.500600 -0.861200
vn -0.376000 0.868400 -0.323400
vn 0.025200 0.703500 -0.710200
vn -0.050200 -0.564300 -0.824000
vn 0.086800 -0.804300 -0.587800
vn 0.290100 -0.699900 -0.652700
vn 0.308300 -0.774000 -0.553100
vn -0.276400 -0.543000 -0.792900
vn -0.268000 -0.699800 -0.662200
vn -0.258000 -0.823500 -0.505300
vn -0.290500 -0.817800 -0.496700
vn 0.109700 -0.990200 0.086000
vn 0.677500 0.666400 0.311300
vn 0.679100 -0.609500 -0.409100
vn 0.496300 0.608800 -0.618900
vn 0.104000 -0.990000 0.095700
vn 0.056300 -0.984400 0.166700
vn 0.313400 0.911000 0.268100
vn 0.041700 0.711200 0.701800
vn 0.082700 -0.993400 0.079100
vn 0.377800 -0.720000 0.582200
vn 0.062200 -0.993600 0.094100
vn 0.016700 -0.999500 0.027000
vn 0.056300 -0.992500 0.108900
vn 0.331500 -0.922100 -0.199700
vn 0.337300 -0.159900 0.927700
vn 0.140900 -0.982700 -0.120200
vn -0.590800 0.346400 0.728600
vn -0.643000 0.537100 0.546000
vn -0.113600 0.461800 0.879700
vn -0.148200 0.700600 0.698000
vn -0.151800 0.508600 0.847500
vn 0.001100 0.486000 0.873900
vn -0.098900 0.723300 0.683400
vn 0.076000 0.711900 0.698200
vn -0.278100 -0.542800 0.792500
vn -0.271100 -0.777200 0.567900
vn -0.268000 -0.699800 0.662200
vn -0.290500 -0.817800 0.496700
vn -0.020300 -0.564900 0.824900
vn 0.433000 -0.690400 0.579600
vn 0.252400 -0.781200 0.570900
vn 0.438900 -0.559100 0.703400
vn -0.242300 -0.956700 0.161000
vn -0.308900 -0.933500 0.181900
vn -0.250400 -0.915500 0.314900
vn -0.300100 -0.898200 0.321200
vn -0.241900 -0.956800 -0.161100
vn -0.249700 -0.915600 -0.315000
vn -0.308900 -0.933500 -0.181900
vn -0.300100 -0.898200 -0.321200
vn 0.330700 -0.665000 0.669700
vn 0.315500 -0.596900 0.737600
vn 0.262700 -0.964500 -0.027300
vn 0.364200 -0.930600 -0.038200
vn 0.468000 -0.871500 0.146700
vn 0.431800 -0.852900 0.293400
vn 0.255100 -0.958200 0.129200
vn 0.469200 -0.881900 0.046700
vn -0.537700 0.831400 0.139900
vn -0.093700 0.995300 0.025100
vn -0.645200 0.654500 0.394200
vn -0.103900 0.859200 0.501100
vn -0.369200 0.916400 -0.154300
vn -0.367000 0.796800 -0.480000
vn -0.014200 0.993400 0.113500
vn 0.143000 0.841100 -0.521700
vn -0.030100 0.985700 -0.165900
vn 0.110800 0.981100 -0.158700
vn -0.064600 0.854800 -0.514900
vn 0.095900 0.855400 -0.509000
vn -0.030500 0.985700 0.165900
vn -0.065800 0.854700 0.514900
vn 0.110800 0.981100 0.158700
vn 0.095900 0.855400 0.509000
s off
f 5/1/1 6/2/1 2/3/1
f 6/2/2 58/4/2 59/5/2
f 5/6/3 56/7/3 57/8/3
f 6/9/4 57/8/4 95/10/4
f 1/11/5 2/3/5 7/12/5
f 3/13/6 7/12/6 61/14/6
f 2/3/7 59/5/7 60/15/7
f 7/12/8 60/15/8 96/16/8
f 1/17/9 3/18/9 8/19/9
f 4/20/10 8/19/10 64/21/10
f 3/22/11 62/23/11 63/24/11
f 63/25/12 92/26/12 64/21/12
f 4/20/13 9/27/13 5/28/13
f 5/29/14 9/30/14 55/31/14
f 4/32/15 65/33/15 66/34/15
f 9/30/16 66/34/16 91/35/16
f 10/36/17 14/37/17 15/38/17
f 11/39/18 15/38/18 67/40/18
f 62/41/19 61/14/19 15/38/19
f 61/14/20 96/16/20 67/40/20
f 10/36/21 11/39/21 16/42/21
f 16/42/22 70/43/22 71/44/22
f 11/39/23 68/45/23 69/46/23
f 16/42/24 69/46/24 97/47/24
f 12/48/25 17/49/25 13/50/25
f 17/49/26 73/51/26 74/52/26
f 71/53/27 72/54/27 17/49/27
f 72/55/28 93/56/28 73/57/28
f 13/50/29 18/58/29 14/59/29
f 18/58/30 63/25/30 62/60/30
f 13/50/31 74/52/31 75/61/31
f 75/61/32 92/26/32 63/25/32
f 19/62/33 23/63/33 24/64/33
f 24/65/34 76/66/34 77/67/34
f 71/68/35 70/69/35 24/70/35
f 24/70/36 70/69/36 97/71/36
f 20/72/37 25/73/37 21/74/37
f 25/73/38 79/75/38 80/76/38
f 20/77/39 77/67/39 78/78/39
f 25/79/40 78/78/40 98/80/40
f 19/62/41 21/74/41 26/81/41
f 22/82/42 26/81/42 82/83/42
f 21/74/43 80/76/43 81/84/43
f 81/84/44 94/85/44 82/83/44
f 22/82/45 27/86/45 23/63/45
f 27/86/46 72/55/46 71/87/46
f 83/88/47 84/89/47 27/86/47
f 27/86/48 84/89/48 93/56/48
f 28/90/49 32/91/49 33/92/49
f 29/93/50 33/92/50 85/94/50
f 32/95/51 80/76/51 79/75/51
f 79/96/52 98/80/52 85/94/52
f 28/90/53 29/93/53 34/97/53
f 34/97/54 57/8/54 56/7/54
f 29/93/55 86/98/55 87/99/55
f 87/99/56 95/10/56 57/8/56
f 30/100/57 35/101/57 31/102/57
f 31/102/58 35/101/58 88/103/58
f 56/104/59 55/31/59 35/101/59
f 55/31/60 91/35/60 88/103/60
f 31/102/61 36/105/61 32/95/61
f 36/105/62 81/84/62 80/76/62
f 89/106/63 90/107/63 36/105/63
f 36/105/64 90/107/64 94/85/64
f 41/108/65 42/109/65 38/110/65
f 42/109/66 66/34/66 65/33/66
f 89/106/67 88/103/67 42/109/67
f 88/103/68 91/35/68 66/34/68
f 38/111/69 43/112/69 39/113/69
f 43/112/70 75/61/70 74/52/70
f 65/114/71 64/21/71 43/112/71
f 64/21/72 92/26/72 75/61/72
f 37/115/73 39/116/73 44/117/73
f 40/118/74 44/117/74 84/89/74
f 39/116/75 74/119/75 73/57/75
f 73/120/76 93/121/76 84/122/76
f 40/118/77 45/123/77 41/108/77
f 41/108/78 45/123/78 90/107/78
f 83/88/79 82/83/79 45/123/79
f 82/83/80 94/85/80 90/107/80
f 50/124/81 51/125/81 47/126/81
f 51/125/82 78/127/82 77/128/82
f 86/98/83 85/94/83 51/129/83
f 85/94/84 98/80/84 78/78/84
f 46/130/85 47/126/85 52/131/85
f 52/131/86 69/46/86 68/45/86
f 47/126/87 77/128/87 76/132/87
f 76/132/88 97/47/88 69/46/88
f 48/133/89 53/134/89 49/135/89
f 53/134/90 60/15/90 59/5/90
f 68/45/91 67/40/91 53/134/91
f 67/40/92 96/16/92 60/15/92
f 49/135/93 54/136/93 50/124/93
f 54/137/94 87/99/94 86/98/94
f 59/5/95 58/4/95 54/136/95
f 58/138/96 95/10/96 87/99/96
f 1/11/97 5/1/97 2/3/97
f 2/3/98 6/2/98 59/5/98
f 6/9/99 5/6/99 57/8/99
f 58/138/100 6/9/100 95/10/100
f 3/13/101 1/11/101 7/12/101
f 62/41/102 3/13/102 61/14/102
f 7/12/103 2/3/103 60/15/103
f 61/14/104 7/12/104 96/16/104
f 4/20/105 1/17/105 8/19/105
f 65/114/106 4/20/106 64/21/106
f 8/139/107 3/22/107 63/24/107
f 8/19/108 63/25/108 64/21/108
f 1/17/109 4/20/109 5/28/109
f 56/104/110 5/29/110 55/31/110
f 9/30/111 4/32/111 66/34/111
f 55/31/112 9/30/112 91/35/112
f 11/39/113 10/36/113 15/38/113
f 68/45/114 11/39/114 67/40/114
f 14/37/115 62/41/115 15/38/115
f 15/38/116 61/14/116 67/40/116
f 12/140/117 10/36/117 16/42/117
f 12/140/118 16/42/118 71/44/118
f 16/42/119 11/39/119 69/46/119
f 70/43/120 16/42/120 97/47/120
f 10/141/121 12/48/121 13/50/121
f 13/50/122 17/49/122 74/52/122
f 12/48/123 71/53/123 17/49/123
f 17/142/124 72/55/124 73/57/124
f 10/141/125 13/50/125 14/59/125
f 14/59/126 18/58/126 62/60/126
f 18/58/127 13/50/127 75/61/127
f 18/58/128 75/61/128 63/25/128
f 20/72/129 19/62/129 24/64/129
f 20/77/130 24/65/130 77/67/130
f 23/143/131 71/68/131 24/70/131
f 76/144/132 24/70/132 97/71/132
f 19/62/133 20/72/133 21/74/133
f 21/74/134 25/73/134 80/76/134
f 25/79/135 20/77/135 78/78/135
f 79/96/136 25/79/136 98/80/136
f 22/82/137 19/62/137 26/81/137
f 83/88/138 22/82/138 82/83/138
f 26/81/139 21/74/139 81/84/139
f 26/81/140 81/84/140 82/83/140
f 19/62/141 22/82/141 23/63/141
f 23/63/142 27/86/142 71/87/142
f 22/82/143 83/88/143 27/86/143
f 72/55/144 27/86/144 93/56/144
f 29/93/145 28/90/145 33/92/145
f 86/98/146 29/93/146 85/94/146
f 33/145/147 32/95/147 79/75/147
f 33/92/148 79/96/148 85/94/148
f 30/146/149 28/90/149 34/97/149
f 30/146/150 34/97/150 56/7/150
f 34/97/151 29/93/151 87/99/151
f 34/97/152 87/99/152 57/8/152
f 28/147/153 30/100/153 31/102/153
f 89/106/154 31/102/154 88/103/154
f 30/100/155 56/104/155 35/101/155
f 35/101/156 55/31/156 88/103/156
f 28/147/157 31/102/157 32/95/157
f 32/95/158 36/105/158 80/76/158
f 31/102/159 89/106/159 36/105/159
f 81/84/160 36/105/160 94/85/160
f 37/115/161 41/108/161 38/110/161
f 38/110/162 42/109/162 65/33/162
f 41/108/163 89/106/163 42/109/163
f 42/109/164 88/103/164 66/34/164
f 37/148/165 38/111/165 39/113/165
f 39/113/166 43/112/166 74/52/166
f 38/111/167 65/114/167 43/112/167
f 43/112/168 64/21/168 75/61/168
f 40/118/169 37/115/169 44/117/169
f 83/88/170 40/118/170 84/89/170
f 44/117/171 39/116/171 73/57/171
f 44/149/172 73/120/172 84/122/172
f 37/115/173 40/118/173 41/108/173
f 89/106/174 41/108/174 90/107/174
f 40/118/175 83/88/175 45/123/175
f 45/123/176 82/83/176 90/107/176
f 46/130/177 50/124/177 47/126/177
f 47/126/178 51/125/178 77/128/178
f 50/150/179 86/98/179 51/129/179
f 51/129/180 85/94/180 78/78/180
f 48/133/181 46/130/181 52/131/181
f 48/133/182 52/131/182 68/45/182
f 52/131/183 47/126/183 76/132/183
f 52/131/184 76/132/184 69/46/184
f 46/130/185 48/133/185 49/135/185
f 49/135/186 53/134/186 59/5/186
f 48/133/187 68/45/187 53/134/187
f 53/134/188 67/40/188 60/15/188
f 46/130/189 49/135/189 50/124/189
f 50/150/190 54/137/190 86/98/190
f 49/135/191 59/5/191 54/136/191
f 54/137/192 58/138/192 87/99/192
